<svg xmlns="http://www.w3.org/2000/svg" viewBox="0 0 512 512" width="512" height="512">
  <defs>
    <radialGradient id="sheen" cx="50%" cy="0%" r="90%">
      <stop offset="0%" stop-color="#2dd4bf" stop-opacity="0.10"/>
      <stop offset="55%" stop-color="#2dd4bf" stop-opacity="0"/>
    </radialGradient>
  </defs>
  <rect x="0" y="0" width="512" height="512" rx="112" fill="#070709"/>
  <rect x="0" y="0" width="512" height="512" rx="112" fill="url(#sheen)"/>
  <rect x="3" y="3" width="506" height="506" rx="109" fill="none" stroke="#2c2c34" stroke-width="6"/>
  <path transform="translate(94.598,106.000) scale(0.214286,-0.214286) translate(-84.595,-1400.000)" d="M84.59503173828125 58.211181640625Q84.59503173828125 104.7064208984375 130.39544677734375 121.769775390625L172.47412109375 135.28033447265625Q197.821533203125 144.30145263671875 209.83209228515625 158.41470336914062Q221.8426513671875 172.5279541015625 221.8426513671875 195.73333740234375V1204.103515625Q221.8426513671875 1227.3088989257812 209.75051879882812 1241.5037231445312Q197.65838623046875 1255.6985473632812 172.63726806640625 1264.7196655273438L129.906005859375 1278.3933715820312Q84.59503173828125 1295.2935791015625 84.59503173828125 1341.9519653320312Q84.59503173828125 1369.3838500976562 102.65838623046875 1384.6919250488281Q120.72174072265625 1400 158.3590087890625 1400H770.8753662109375Q954.2227783203125 1400 1104.8043518066406 1345.652587890625Q1255.3859252929688 1291.30517578125 1364.2937927246094 1190.7236022949219Q1473.20166015625 1090.1420288085938 1532.1095275878906 950.7658386230469Q1591.0173950195312 811.3896484375 1591.0173950195312 640.4952392578125Q1591.0173950195312 452.67950439453125 1501.6095275878906 308.13726806640625Q1412.20166015625 163.59503173828125 1249.0596313476562 81.79751586914062Q1085.9176025390625 0 863.7966918945312 0H158.3590087890625Q120.55859375 0 102.57681274414062 15.808074951171875Q84.59503173828125 31.61614990234375 84.59503173828125 58.211181640625ZM814.42236328125 123.58551025390625Q899.9118041992188 123.58551025390625 968.9118041992188 176.80911254882812Q1037.9118041992188 230.03271484375 1078.3302307128906 346.28509521484375Q1118.7486572265625 462.5374755859375 1118.7486572265625 651.2053833007812Q1118.7486572265625 801.0575561523438 1092.0855102539062 917.2993774414062Q1065.42236328125 1033.5411987304688 1014.0039367675781 1113.662109375Q962.5855102539062 1193.7830200195312 890.2380981445312 1235.0987548828125Q817.8906860351562 1276.4144897460938 726.5221557617188 1276.4144897460938H679.9693603515625V222.67578125Q679.9693603515625 171.20166015625 706.53271484375 147.39358520507812Q733.0960693359375 123.58551025390625 782.549072265625 123.58551025390625Z" fill="#2dd4bf"/>
</svg>